<svg width="100" height="72" viewBox="0 0 100 72" fill="none" xmlns="http://www.w3.org/2000/svg">
<path d="M98.2246 26.8742C97.9271 26.6758 95.4479 24.7421 90.0929 24.7421C88.7046 24.7421 87.3162 24.8908 85.9279 25.1388C84.8867 18.1971 79.0854 14.6767 78.8375 14.5279L77.3996 13.685L76.5071 15.0238C75.3171 16.8088 74.375 18.8417 73.9783 20.9242C72.9867 24.8908 73.5817 28.6592 75.6146 31.8821C73.185 33.2704 69.2183 33.6175 68.3754 33.6175H3.07417C1.38833 33.6175 0 35.0058 0 36.7412C0 42.4433 0.8925 48.1454 2.87583 53.5004C5.10708 59.4008 8.47875 63.7642 12.7925 66.4417C17.6517 69.4167 25.6346 71.1025 34.7083 71.1025C38.6254 71.1025 42.6912 70.7554 46.7075 70.0117C52.2608 69.02 57.6158 67.0863 62.5246 64.26C66.59 61.9353 70.2288 58.9337 73.2842 55.3846C78.4904 49.5833 81.5646 42.9888 83.7958 37.2867H84.7379C90.3904 37.2867 93.9108 35.0058 95.8446 33.0721C97.1337 31.8821 98.0758 30.4442 98.77 28.7583L99.1667 27.5683L98.2246 26.8742ZM9.17292 31.7829H17.8996C18.2962 31.7829 18.6929 31.4358 18.6929 30.9896V23.1554C18.6929 22.7588 18.3458 22.3621 17.8996 22.3621H9.17292C8.72667 22.3621 8.37958 22.7092 8.37958 23.1554V30.9896C8.42917 31.4358 8.72667 31.7829 9.17292 31.7829ZM21.2217 31.7829H29.9483C30.345 31.7829 30.7417 31.4358 30.7417 30.9896V23.1554C30.7417 22.7588 30.3946 22.3621 29.9483 22.3621H21.2217C20.7754 22.3621 20.4283 22.7092 20.4283 23.1554V30.9896C20.4779 31.4358 20.7754 31.7829 21.2217 31.7829ZM33.4687 31.7829H42.1458C42.6417 31.7829 42.9887 31.4358 42.9887 30.9896V23.1554C42.9887 22.7588 42.6912 22.3621 42.1458 22.3621H33.4687C33.0721 22.3621 32.725 22.7092 32.725 23.1554V30.9896C32.725 31.4358 33.0225 31.7829 33.4687 31.7829ZM45.5671 31.7829H54.3433C54.74 31.7829 55.0871 31.4358 55.0871 30.9896V23.1554C55.0871 22.7588 54.7896 22.3621 54.3433 22.3621H45.5671C45.1704 22.3621 44.8233 22.7092 44.8233 23.1554V30.9896C44.8233 31.4358 45.1704 31.7829 45.5671 31.7829ZM21.2217 20.6763H29.9483C30.345 20.6763 30.7417 20.23 30.7417 19.7837V11.9992C30.7417 11.5529 30.3946 11.2058 29.9483 11.2058H21.2217C20.7754 11.2058 20.4283 11.5033 20.4283 11.9992V19.7837C20.4779 20.23 20.7754 20.6763 21.2217 20.6763ZM33.4687 20.6763H42.1458C42.6417 20.6763 42.9887 20.23 42.9887 19.7837V11.9992C42.9887 11.5529 42.6912 11.2058 42.1458 11.2058H33.4687C33.0721 11.2058 32.725 11.5033 32.725 11.9992V19.7837C32.725 20.23 33.0225 20.6763 33.4687 20.6763ZM45.5671 20.6763H54.3433C54.74 20.6763 55.0871 20.23 55.0871 19.7837V11.9992C55.0871 11.5529 54.74 11.2058 54.3433 11.2058H45.5671C45.1704 11.2058 44.8233 11.5033 44.8233 11.9992V19.7837C44.8233 20.23 45.1704 20.6763 45.5671 20.6763ZM45.5671 9.37125H54.3433C54.74 9.37125 55.0871 9.02417 55.0871 8.57792V0.842917C55.0871 0.347084 54.74 0 54.3433 0H45.5671C45.1704 0 44.8233 0.2975 44.8233 0.842917V8.57792C44.8233 8.97458 45.1704 9.37125 45.5671 9.37125ZM57.7646 31.7829H66.4912C66.9375 31.7829 67.2846 31.4358 67.2846 30.9896V23.1554C67.2846 22.7588 66.9375 22.3621 66.4912 22.3621H57.7646C57.3679 22.3621 57.0208 22.7092 57.0208 23.1554V30.9896C57.0208 31.4358 57.3679 31.7829 57.7646 31.7829Z" fill="white"/>
</svg>
