<svg width="87" height="90" viewBox="0 0 87 90" fill="none" xmlns="http://www.w3.org/2000/svg">
<path d="M86.5363 20.34C86.5808 20.43 86.5808 20.565 86.5808 20.7V40.005C86.5808 40.455 86.3133 40.995 85.9121 41.22L69.8175 50.58V69.075C69.8175 69.57 69.5946 70.02 69.1488 70.29L35.6221 89.775C35.5329 89.82 35.4438 89.955 35.3546 89.955H34.3738C34.3738 89.955 34.3738 89.82 34.1954 89.775L0.66875 70.29C0.464759 70.1609 0.296459 69.9818 0.179527 69.7693C0.062595 69.5569 0.000835228 69.318 0 69.075V11.205C0 10.98 -4.15215e-08 10.845 0.0445833 10.755C0.0445833 10.71 0.0891666 10.665 0.0891666 10.62C0.0891666 10.53 0.13375 10.485 0.178333 10.395C0.178333 10.35 0.222916 10.305 0.2675 10.26L0.401251 10.125L0.535001 9.99C0.579584 9.945 0.624167 9.9 0.66875 9.9L17.4321 0.135C17.8779 -0.045 18.4129 -0.045 18.7696 0.135L35.6221 9.9C35.6667 9.945 35.7113 9.945 35.7558 9.99L35.8896 10.125L36.0233 10.26C36.0679 10.305 36.1125 10.35 36.1125 10.395C36.1571 10.485 36.2017 10.53 36.2017 10.62C36.2017 10.665 36.2463 10.71 36.2463 10.755C36.2908 10.89 36.2908 10.98 36.2908 11.205V47.205L50.29 39.195V20.7C50.29 20.565 50.29 20.43 50.3346 20.34L50.3792 20.205C50.3792 20.205 50.4238 20.07 50.4683 19.98C50.4683 19.935 50.5129 19.89 50.5575 19.845L50.6912 19.71L50.825 19.575C50.8696 19.53 50.9142 19.485 50.9588 19.485L67.8112 9.72C68.1679 9.45 68.7029 9.45 69.1488 9.72L85.9121 19.485C85.9567 19.485 86.0013 19.53 86.0458 19.575L86.1796 19.71L86.3133 19.845C86.3579 19.89 86.3579 19.935 86.4025 19.98C86.4471 20.07 86.4471 20.205 86.4917 20.205C86.5363 20.205 86.5363 20.205 86.5363 20.34ZM83.8167 39.195V23.13L69.8175 31.23V47.205L83.8167 39.195ZM67.0533 68.265V52.155L36.2908 69.885V86.13L67.0533 68.265ZM2.76417 13.455V68.265L33.5267 86.13V69.885L17.4767 60.705H17.4321C17.3875 60.705 17.3429 60.705 17.2983 60.57C17.2538 60.57 17.2092 60.525 17.1646 60.48L17.0308 60.345C16.9863 60.3 16.9863 60.255 16.9417 60.21C16.8971 60.12 16.8971 60.075 16.8525 60.03C16.8525 59.94 16.8079 59.895 16.8079 59.85C16.7633 59.805 16.7633 59.715 16.7633 59.67V21.645L2.76417 13.455ZM18.1454 3.015L4.19083 11.205L18.1454 19.215L32.1446 11.205L18.1454 3.015ZM33.5267 48.915V13.455L19.5275 21.645V57.06L33.5267 48.915ZM68.4354 12.555L54.4363 20.7L68.4354 28.8L82.39 20.7L68.4354 12.555ZM67.0533 31.23L53.0542 23.13V39.195L67.0533 47.205V31.23ZM34.9088 67.455L65.5821 49.725L51.6721 41.625L20.9988 59.49L34.9088 67.455Z" fill="white"/>
</svg>
