<svg width="85" height="85" viewBox="0 0 85 85" fill="none" xmlns="http://www.w3.org/2000/svg">
<path d="M25.5 25.5L27.795 23.8397C27.4439 23.3548 26.9483 22.9935 26.3792 22.8078C25.8101 22.622 25.1968 22.6212 24.6273 22.8056C24.0578 22.99 23.5613 23.3501 23.209 23.8341C22.8568 24.3182 22.6669 24.9014 22.6667 25.5H25.5ZM42.5 79.3333C32.7312 79.3333 23.3625 75.4527 16.4549 68.5451C9.54731 61.6375 5.66667 52.2688 5.66667 42.5H0C0 53.7717 4.47767 64.5817 12.448 72.552C20.4183 80.5223 31.2283 85 42.5 85V79.3333ZM79.3333 42.5C79.3333 47.337 78.3806 52.1267 76.5296 56.5955C74.6785 61.0643 71.9654 65.1248 68.5451 68.5451C65.1248 71.9654 61.0643 74.6785 56.5955 76.5296C52.1267 78.3806 47.337 79.3333 42.5 79.3333V85C53.7717 85 64.5817 80.5223 72.552 72.552C80.5223 64.5817 85 53.7717 85 42.5H79.3333ZM42.5 5.66667C47.337 5.66667 52.1267 6.61939 56.5955 8.47044C61.0643 10.3215 65.1248 13.0346 68.5451 16.4549C71.9654 19.8752 74.6785 23.9357 76.5296 28.4045C78.3806 32.8733 79.3333 37.663 79.3333 42.5H85C85 31.2283 80.5223 20.4183 72.552 12.448C64.5817 4.47767 53.7717 0 42.5 0V5.66667ZM42.5 0C31.2283 0 20.4183 4.47767 12.448 12.448C4.47767 20.4183 0 31.2283 0 42.5H5.66667C5.66667 32.7312 9.54731 23.3625 16.4549 16.4549C23.3625 9.54731 32.7312 5.66667 42.5 5.66667V0ZM28.3333 68V25.5H22.6667V68H28.3333ZM23.205 27.1603L60.0383 78.1603L64.6283 74.8397L27.795 23.8397L23.205 27.1603ZM56.6667 22.6667V56.6667H62.3333V22.6667H56.6667Z" fill="white"/>
</svg>
