<svg width="105" height="105" viewBox="0 0 105 105" fill="none" xmlns="http://www.w3.org/2000/svg">
<path d="M56.3806 5.95868C55.2043 5.26704 53.8646 4.90234 52.5 4.90234C51.1354 4.90234 49.7957 5.26704 48.6194 5.95868L14.7131 25.8999C13.5632 26.5761 12.6099 27.5409 11.9476 28.6989C11.2854 29.8569 10.9372 31.1678 10.9375 32.5018V72.4981C10.9375 75.2106 12.3725 77.7218 14.7131 79.0956L26.1888 85.8462C32.0206 89.2849 39.375 85.0762 39.375 78.3124V33.8931H30.625V78.3081L19.6875 71.8724V33.1274L52.5 13.8249L85.3125 33.1274V71.8724L52.5 91.1749L44.765 86.6249L40.3288 94.1631L48.6194 99.0412C49.7957 99.7328 51.1354 100.098 52.5 100.098C53.8646 100.098 55.2043 99.7328 56.3806 99.0412L90.2869 79.0956C91.4362 78.4198 92.3891 77.4556 93.0513 76.2985C93.7135 75.1413 94.0621 73.8313 94.0625 72.4981V32.5018C94.0621 31.1686 93.7135 29.8585 93.0513 28.7014C92.3891 27.5442 91.4362 26.5801 90.2869 25.9043L56.3806 5.95868ZM61.25 32.8124C55.2869 32.8124 51.0606 34.3481 48.3438 37.0562C46.2922 39.0967 45.1327 41.867 45.1194 44.7606C45.1194 47.1887 45.8063 49.3893 47.2281 51.2093C48.5975 52.9593 50.4 54.0487 52.1281 54.7531C55.2781 56.0524 59.2156 56.4768 62.3831 56.8137L62.7637 56.8574C66.3994 57.2512 69.125 57.5881 70.9888 58.3668C71.8331 58.7168 72.1787 59.0406 72.3231 59.2287C72.415 59.3512 72.5944 59.6224 72.5944 60.3662C72.5944 61.5212 72.2006 62.2649 70.9625 62.9693C69.4444 63.8312 66.7625 64.4874 62.7244 64.4874C58.7212 64.4874 55.93 63.7437 54.3331 62.6412C53.095 61.7837 52.1806 60.4668 52.4213 57.6099L43.7019 56.8793C43.2294 62.5187 45.2725 67.0118 49.3544 69.8381C53.0775 72.4193 57.9731 73.2374 62.7244 73.2374C67.4362 73.2374 71.8769 72.5156 75.2937 70.5687C78.995 68.4687 81.3444 64.9599 81.3444 60.3662C81.3444 57.9293 80.6662 55.7243 79.2575 53.8912C77.9012 52.1237 76.0987 51.0212 74.3662 50.2949C71.1812 48.9606 67.1912 48.5318 64.0063 48.1906L63.7 48.1556C60.0556 47.7618 57.33 47.4337 55.4531 46.6637C54.6044 46.3137 54.2587 45.9987 54.1275 45.8237C54.04 45.7187 53.8694 45.4737 53.8694 44.7606C53.8694 44.4237 53.97 43.8024 54.5256 43.2512C55.0594 42.7174 56.7088 41.5624 61.25 41.5624C65.5812 41.5624 68.1056 42.0218 69.5494 42.8749C70.49 43.4349 71.5094 44.4631 71.6494 47.8318L80.3906 47.4818C80.1719 42.0306 78.1769 37.8218 74.0119 35.3543C70.35 33.1756 65.6688 32.8124 61.25 32.8124Z" fill="white"/>
</svg>
