<svg width="72" height="72" viewBox="0 0 72 72" fill="none" xmlns="http://www.w3.org/2000/svg">
<path d="M48.3596 14.0039L50.0471 14.0602C50.6658 14.1164 51.2846 14.2289 51.9596 14.3414L50.5533 10.1789L42.2283 1.91015C40.3158 -0.00234707 37.7283 -0.564847 36.3783 0.616403L16.0721 14.0602L48.3596 14.0039ZM51.7908 16.0289C51.1158 15.9164 50.4971 15.8039 49.9346 15.7477L48.3033 15.6914L16.8033 15.7477L61.0158 59.9602L64.4471 52.1977L51.7908 16.0289ZM15.9033 51.8039L52.0721 64.5727L59.8346 61.1414L15.6221 16.9289V48.4852L15.6783 50.0039C15.6783 50.5102 15.7346 51.1289 15.9033 51.8039Z" fill="white"/>
<path d="M59.778 19.2354C58.3155 17.7729 55.8405 16.3666 53.4217 15.5791L66.2467 52.2541L62.3655 61.0854L71.253 58.1604V30.7666L59.778 19.2354ZM52.1842 66.3729L15.6217 53.4916C16.4092 55.9103 17.7592 58.3854 19.278 59.9041L31.2592 71.8291L58.0342 71.8854L61.0155 62.4916L52.1842 66.3729ZM13.9905 50.0604L13.9342 48.5416V16.1979L0.602975 36.5604C-0.578275 37.7979 0.0404749 40.4416 1.89672 42.4104L10.1655 50.7354L14.2717 52.1979C14.103 51.4666 13.9905 50.7916 13.9905 50.0604Z" fill="white"/>
</svg>
