<svg width="78" height="41" viewBox="0 0 78 41" fill="none" xmlns="http://www.w3.org/2000/svg">
<path d="M38.75 2.1235C59.5006 2.1235 75.3765 10.7493 75.3765 20.4988C75.3765 30.2483 59.5006 38.998 38.75 38.998C17.9994 38.998 2.1235 30.2483 2.1235 20.4988C2.1235 10.7493 17.9994 2.1235 38.75 2.1235ZM38.75 0C17.2515 0 0 9.12562 0 20.3748C0 31.6239 17.2515 40.6255 38.75 40.6255C60.2485 40.6255 77.5 31.6239 77.5 20.3748C77.5 9.12562 60.2485 0 38.75 0ZM26.3732 18.8713C25.5014 23.7499 21.9984 23.25 17.8754 23.25L19.6269 14.6242C24.2497 14.6242 27.249 14.1205 26.3732 18.8713ZM11.749 31.8796H16.2517L17.2515 26.3771C22.1263 26.3771 25.3735 26.753 28.1248 24.1296C31.2519 21.1265 32.1237 16.0038 29.8762 13.5044C28.6246 12.1288 26.8731 11.377 24.2498 11.377H15.624L11.749 31.8796ZM34.3751 6.00238H38.75L37.7502 11.5049C41.5012 11.5049 45.1244 11.377 46.8759 12.8766C48.6235 14.6281 47.7516 16.6276 46.0001 26.629H41.3734C43.1249 17.1275 43.5008 16.2517 43.0009 15.5039C42.501 14.756 40.5015 14.7521 36.9985 14.7521L34.751 26.629H30.3723L34.3751 6.00238ZM61.1243 18.879C60.2485 23.7538 56.7494 23.2539 52.6264 23.2539L54.374 14.6281C59.0007 14.6281 62 14.1283 61.1243 18.879ZM46.5 31.8757H50.8749L51.8746 26.6251C57.1253 26.6251 60.0005 27.001 62.7518 24.3776C65.875 21.3745 66.7507 16.2479 64.4994 13.7485C63.2516 12.3729 61.5001 11.625 58.8768 11.625H50.251L46.5 31.8757Z" fill="white"/>
</svg>
