<svg width="102" height="105" viewBox="0 0 102 105" fill="none" xmlns="http://www.w3.org/2000/svg">
<path d="M101.258 64.411C101.199 64.2257 101.115 64.0491 101.009 63.886C100.396 62.7339 98.9277 62.397 96.6031 62.8754C89.3668 64.3629 86.5668 63.4441 85.5518 62.7879C91.4231 53.8279 96.2487 43.0041 98.8562 32.9066C100.046 28.3129 102.347 17.4935 99.39 12.2129C99.2018 11.8502 98.9822 11.5047 98.7337 11.1804C93.09 3.97912 84.8081 0.107248 74.7893 0.00224806C68.2487 -0.0677519 62.6706 1.516 61.1568 2.09787C60.4076 1.95865 59.6548 1.83902 58.8993 1.73912C57.0046 1.39634 55.0847 1.2105 53.1593 1.1835C47.9881 1.10037 43.5212 2.3385 39.8156 4.8585C36.0706 3.45412 18.8725 -2.33838 8.22809 5.20412C2.27371 9.41725 -0.465035 16.9422 0.0643395 27.5779C0.243715 31.1566 2.28246 42.1641 5.50246 52.7079C7.51496 59.2995 9.60476 64.5233 11.7718 68.3791C14.1927 72.7337 16.6923 75.3441 19.2706 76.2104C21.2306 76.8579 24.2275 76.836 27.3993 73.021C30.1508 69.73 32.9883 66.5118 35.9087 63.3697C37.8118 64.3979 39.8725 64.9535 41.99 65.0191V65.0366C41.6218 65.475 41.2616 65.9198 40.9093 66.371C39.4262 68.2522 39.1156 68.646 34.3468 69.6304C32.9906 69.9104 29.3856 70.6497 29.3331 73.1785C29.3253 73.6837 29.4636 74.1805 29.7312 74.6091C30.7243 76.4597 33.765 77.2779 34.1718 77.3785C40.0125 78.8354 45.1312 77.781 48.9243 74.4079C48.85 84.1685 49.2612 93.7366 50.4337 96.6679C51.4006 99.0872 53.7675 104.998 61.24 104.998C62.3337 105.001 63.5427 104.864 64.8668 104.587C72.6631 102.915 76.0493 99.4679 77.3575 91.8729C78.0137 88.0666 79.1162 79.2947 79.7156 73.931C79.79 73.6247 79.8731 73.406 79.965 73.336C79.965 73.336 80.2712 73.126 81.8331 73.4672L82.0256 73.4979L83.1368 73.5941L83.2025 73.5985C86.9081 73.7691 91.5631 72.9772 94.2756 71.7172C97.0931 70.4047 102.181 67.1979 101.258 64.411ZM8.55184 51.9554C5.29684 41.3022 3.39809 30.5835 3.24934 27.5822C2.77246 18.0797 5.07371 11.4691 10.0831 7.92537C18.12 2.24225 31.2581 5.56287 36.8056 7.35662L36.7618 7.40037C27.9112 16.3341 28.1212 31.6116 28.1518 32.5479C28.1518 32.9066 28.1781 33.4185 28.2218 34.1229C28.3706 36.6866 28.6593 41.4729 27.8981 46.8891C27.1981 51.9204 28.7468 56.8466 32.155 60.4035C32.505 60.771 32.8725 61.1166 33.2575 61.4404C31.7393 63.0635 28.445 66.6597 24.9318 70.8816C22.4468 73.8654 20.7318 73.2922 20.1718 73.1041C18.4568 72.5354 16.615 70.536 14.7512 67.3204C12.6512 63.6497 10.5381 58.4304 8.56059 51.9554M34.8412 74.2154C34.1765 74.0497 33.5397 73.7873 32.9512 73.4366C33.3406 73.266 33.9881 73.0429 35.0643 72.8241C40.6818 71.6647 41.5481 70.851 43.4425 68.4491C43.9543 67.784 44.4898 67.1376 45.0481 66.511C45.1908 66.3435 45.3006 66.1505 45.3718 65.9422C46.1156 65.2816 46.5618 65.461 47.2793 65.7585C47.9618 66.0429 48.6268 66.896 48.8981 67.8366C49.0293 68.2829 49.1693 69.1273 48.7012 69.7835C44.7462 75.3223 38.98 75.2523 34.8412 74.2154ZM44.0025 56.7679L43.775 57.3804C43.1931 58.9422 42.6506 60.3947 42.3137 61.7729C39.3956 61.7641 36.5518 60.5129 34.395 58.2598C31.6475 55.3941 30.4006 51.4085 30.9693 47.3223C31.77 41.5998 31.4768 36.6166 31.3193 33.9391L31.2625 32.9766C32.5575 31.8304 38.5512 28.6191 42.8256 29.5991C44.7768 30.0454 45.9668 31.3754 46.4568 33.6591C49.0162 45.4891 46.7981 50.4154 45.0131 54.3791C44.6516 55.1641 44.3159 55.9608 44.0068 56.7679M76.2243 76.7704C76.1543 77.5462 76.0639 78.4154 75.9531 79.3779L75.3143 81.2941C75.2665 81.4473 75.2401 81.6063 75.2356 81.7666C75.2093 83.8447 74.9993 84.606 74.7325 85.5729C74.2981 87.0801 74.0339 88.6312 73.945 90.1973C73.4637 96.3835 70.1037 99.9404 63.3706 101.38C56.7425 102.802 55.5656 99.2097 54.5331 96.0379C54.425 95.7049 54.3113 95.3738 54.1918 95.0447C53.2512 92.481 53.3606 88.8672 53.505 83.8666C53.575 81.4122 53.3956 75.5498 52.0612 72.2904C52.0787 71.007 52.1064 69.7062 52.1443 68.3879C52.1448 68.2206 52.1212 68.0541 52.0743 67.8935C52.0264 67.587 51.9621 67.2832 51.8818 66.9835C51.3481 65.111 50.0443 63.5448 48.4693 62.8929C47.8481 62.6348 46.7062 62.1622 45.3325 62.5122C45.6256 61.3047 46.1331 59.9441 46.6843 58.4654L46.9162 57.8441C47.1787 57.1441 47.5025 56.4222 47.8481 55.6566C49.7118 51.5091 52.2668 45.8304 49.4931 33.0029C48.4562 28.1991 44.9868 25.8541 39.7281 26.3966C36.5781 26.7247 33.6906 27.9979 32.2512 28.7241C31.9626 28.8705 31.6767 29.0222 31.3937 29.1791C31.7962 24.3404 33.3143 15.2929 38.9887 9.57037C39.4097 9.14548 39.8521 8.74246 40.3143 8.36287C40.5444 8.31928 40.7614 8.22349 40.9487 8.08287C44.2387 5.58912 48.3643 4.36412 53.2075 4.4385C55.0041 4.46766 56.7162 4.58579 58.3437 4.79287C66.8312 6.346 72.5362 11.1235 76.0012 15.2185C79.5625 19.4272 81.4918 23.6666 82.2618 25.9547C76.4737 25.3685 72.5362 26.5104 70.5368 29.3672C66.1968 35.571 72.9168 47.6197 76.1456 53.4122C76.7362 54.471 77.2481 55.3897 77.41 55.7747C78.46 58.3254 79.8206 60.0272 80.8137 61.2697C81.12 61.6504 81.4175 62.0179 81.6406 62.3416C79.8906 62.8491 76.7406 64.0173 77.025 69.8535C76.9164 71.0434 76.7939 72.2321 76.6575 73.4191C76.4562 74.3291 76.3556 75.4316 76.2243 76.7704ZM80.1137 69.6785C79.9387 66.0385 81.295 65.6579 82.7256 65.2597L83.3162 65.0804C83.4986 65.2469 83.6947 65.3976 83.9025 65.531C86.3962 67.176 90.8281 67.3729 97.0581 66.1172C96.1743 66.8916 94.7875 67.8672 92.8887 68.7466C91.095 69.5779 88.0937 70.2035 85.2456 70.3391C82.0956 70.4879 80.4943 69.9891 80.1137 69.6785ZM82.6075 29.1179C82.5596 30.5868 82.4061 32.0504 82.1481 33.4972C81.9075 35.0635 81.6581 36.6822 81.5925 38.6466C81.5312 40.5541 81.7675 42.5404 81.9993 44.4654C82.4675 48.346 82.9443 52.3404 81.0937 56.2822C80.7896 55.7359 80.5151 55.1736 80.2712 54.5979C79.8367 53.6778 79.3623 52.7772 78.8493 51.8985C76.1543 47.0685 69.85 35.7547 73.0743 31.1435C74.7368 28.7679 78.9456 28.6672 82.6075 29.1179ZM83.605 59.7997L83.2331 59.3316L83.08 59.1391C86.2562 53.8891 85.635 48.696 85.0793 44.0935C84.8518 42.2035 84.6418 40.4185 84.6943 38.7472C84.7512 36.9666 84.9831 35.4441 85.2106 33.9697C85.4906 32.1541 85.7793 30.2772 85.6962 28.0635C85.7578 27.791 85.7756 27.5104 85.7487 27.2322C85.5475 25.106 83.1237 18.7535 78.18 13.0004C74.9582 9.20291 70.9442 6.15664 66.42 4.07537C69.3316 3.48174 72.2995 3.20886 75.2706 3.26162C84.2481 3.46287 91.3487 6.82287 96.3756 13.2497C96.482 13.3896 96.5799 13.5357 96.6687 13.6872C99.8318 19.6197 95.4656 41.1404 83.605 59.7997ZM45.0306 33.0422C44.9212 33.8297 43.6743 34.8929 42.3137 34.8929L41.9593 34.8666C41.0715 34.7095 40.2784 34.2159 39.7456 33.4885C39.5443 33.226 39.2206 32.7097 39.2818 32.2416C39.3013 32.1108 39.3474 31.9855 39.4174 31.8733C39.4874 31.7612 39.5798 31.6646 39.6887 31.5897C40.205 31.2004 41.2287 31.056 42.3575 31.2135C43.74 31.406 45.1662 32.0579 45.0262 33.0422M79.72 31.2441C79.7681 31.5941 79.5056 32.1191 79.0506 32.6004C78.5799 33.114 77.9521 33.4571 77.2656 33.576L76.9375 33.5979C75.6556 33.5979 74.5706 32.5741 74.4875 31.9747C74.3825 31.2004 75.6425 30.6185 76.9375 30.4347C78.2412 30.251 79.615 30.4741 79.72 31.2441Z" fill="white"/>
</svg>
