<svg width="65" height="65" viewBox="0 0 65 65" fill="none" xmlns="http://www.w3.org/2000/svg">
<path d="M32.3542 16.9792H16.9792M16.9792 16.9792H11.779C9.02175 16.9792 6.19958 17.6215 4.5015 19.7945C2.69067 22.1144 0.75 26.0641 0.75 32.3542C0.75 38.6408 2.69067 42.5939 4.5015 44.9138C6.19958 47.0868 9.02175 47.7292 11.779 47.7292H16.9792M16.9792 16.9792V11.779C16.9792 9.02175 17.6215 6.19958 19.7945 4.5015C22.1144 2.69067 26.0641 0.75 32.3542 0.75C38.6408 0.75 42.5939 2.69067 44.9138 4.5015C47.0868 6.19958 47.7292 9.02175 47.7292 11.779V16.9792M32.3542 47.7292H47.7292M47.7292 47.7292H52.9259C55.6832 47.7292 58.5087 47.0868 60.2034 44.9138C62.0177 42.5939 63.9583 38.6442 63.9583 32.3542C63.9583 26.0675 62.0177 22.1144 60.2068 19.7945C58.5087 17.6215 55.6832 16.9792 52.9293 16.9792H47.7292M47.7292 47.7292V52.9259C47.7292 55.6832 47.0868 58.5087 44.9138 60.2034C42.5939 62.0177 38.6442 63.9583 32.3542 63.9583C26.0675 63.9583 22.1144 62.0177 19.7945 60.2068C17.6215 58.5087 16.9792 55.6832 16.9792 52.9293V47.7292M47.7292 16.9792V25.5208C47.7292 27.3331 47.0092 29.0712 45.7277 30.3527C44.4462 31.6342 42.7081 32.3542 40.8958 32.3542H23.8125C22.0002 32.3542 20.2621 33.0741 18.9806 34.3556C17.6991 35.6371 16.9792 37.3752 16.9792 39.1875V47.7292" stroke="white" stroke-width="1.5" stroke-linecap="round" stroke-linejoin="round"/>
<path d="M42.6045 54.5627C42.6045 55.2423 42.3345 55.8941 41.854 56.3746C41.3734 56.8552 40.7216 57.1252 40.042 57.1252C39.3624 57.1252 38.7106 56.8552 38.23 56.3746C37.7495 55.8941 37.4795 55.2423 37.4795 54.5627C37.4795 53.883 37.7495 53.2313 38.23 52.7507C38.7106 52.2701 39.3624 52.0002 40.042 52.0002C40.7216 52.0002 41.3734 52.2701 41.854 52.7507C42.3345 53.2313 42.6045 53.883 42.6045 54.5627ZM22.1045 10.146C22.1045 9.46638 22.3745 8.8146 22.855 8.33403C23.3356 7.85347 23.9874 7.5835 24.667 7.5835C25.3466 7.5835 25.9984 7.85347 26.479 8.33403C26.9595 8.8146 27.2295 9.46638 27.2295 10.146C27.2295 10.8256 26.9595 11.4774 26.479 11.958C25.9984 12.4385 25.3466 12.7085 24.667 12.7085C23.9874 12.7085 23.3356 12.4385 22.855 11.958C22.3745 11.4774 22.1045 10.8256 22.1045 10.146Z" fill="white"/>
</svg>
