<svg width="97" height="88" viewBox="0 0 97 88" fill="none" xmlns="http://www.w3.org/2000/svg">
<path d="M48.375 35.0936C53.01 35.0936 56.79 38.9086 56.79 43.6774C56.79 48.219 53.01 52.0794 48.375 52.0794C43.74 52.0794 39.96 48.219 39.96 43.6774C39.96 38.9086 43.74 35.0936 48.375 35.0936ZM27.54 80.0107C30.375 81.7365 36.585 79.1023 43.74 72.2899C41.4 69.6103 39.105 66.7036 36.945 63.6607C33.319 63.3079 29.714 62.7621 26.145 62.0257C23.85 71.7449 24.705 78.4211 27.54 80.0107ZM30.735 53.9415L29.43 51.6253C28.935 52.9424 28.44 54.2594 28.125 55.5311C29.34 55.8036 30.69 56.0307 32.085 56.2578L30.735 53.9415ZM60.165 50.4899L63.81 43.6774L60.165 36.8649C58.815 34.4578 57.375 32.3232 56.07 30.1886C53.64 30.0524 51.075 30.0524 48.375 30.0524C45.675 30.0524 43.11 30.0524 40.68 30.1886C39.375 32.3232 37.935 34.4578 36.585 36.8649L32.94 43.6774L36.585 50.4899C37.935 52.8969 39.375 55.0315 40.68 57.1661C43.11 57.3024 45.675 57.3024 48.375 57.3024C51.075 57.3024 53.64 57.3024 56.07 57.1661C57.375 55.0315 58.815 52.8969 60.165 50.4899ZM48.375 19.9699C47.52 20.969 46.62 22.0136 45.72 23.2399H51.03C50.13 22.0136 49.23 20.969 48.375 19.9699ZM48.375 67.3848C49.23 66.3857 50.13 65.3411 51.03 64.1149H45.72C46.62 65.3411 47.52 66.3857 48.375 67.3848ZM69.165 7.34402C66.375 5.61819 60.165 8.25236 53.01 15.0649C55.35 17.7444 57.645 20.6511 59.805 23.694C63.495 24.0574 67.14 24.6024 70.605 25.329C72.9 15.6099 72.045 8.93361 69.165 7.34402ZM66.015 33.4132L67.32 35.7294C67.815 34.4124 68.31 33.0953 68.625 31.8236C67.41 31.5511 66.06 31.324 64.665 31.0969L66.015 33.4132ZM72.54 1.39444C79.155 5.20944 79.875 15.2465 77.085 26.964C88.515 30.3703 96.75 36.0019 96.75 43.6774C96.75 51.3528 88.515 56.9844 77.085 60.3907C79.875 72.1082 79.155 82.1453 72.54 85.9603C65.97 89.7753 57.015 85.4153 48.375 77.104C39.735 85.4153 30.78 89.7753 24.165 85.9603C17.595 82.1453 16.875 72.1082 19.665 60.3907C8.235 56.9844 0 51.3528 0 43.6774C0 36.0019 8.235 30.3703 19.665 26.964C16.875 15.2465 17.595 5.20944 24.165 1.39444C30.78 -2.42056 39.735 1.93944 48.375 10.2507C57.015 1.93944 65.97 -2.42056 72.54 1.39444ZM71.235 43.6774C72.765 47.0836 74.115 50.4899 75.24 53.9415C84.69 51.0803 90 46.9928 90 43.6774C90 40.3619 84.69 36.2744 75.24 33.4132C74.115 36.8649 72.765 40.2711 71.235 43.6774ZM25.515 43.6774C23.985 40.2711 22.635 36.8649 21.51 33.4132C12.06 36.2744 6.75 40.3619 6.75 43.6774C6.75 46.9928 12.06 51.0803 21.51 53.9415C22.635 50.4899 23.985 47.0836 25.515 43.6774ZM66.015 53.9415L64.665 56.2578C66.06 56.0307 67.41 55.8036 68.625 55.5311C68.31 54.2594 67.815 52.9424 67.32 51.6253L66.015 53.9415ZM53.01 72.2899C60.165 79.1023 66.375 81.7365 69.165 80.0107C72.045 78.4211 72.9 71.7449 70.605 62.0257C67.14 62.7524 63.495 63.2974 59.805 63.6607C57.645 66.7036 55.35 69.6103 53.01 72.2899ZM30.735 33.4132L32.085 31.0969C30.69 31.324 29.34 31.5511 28.125 31.8236C28.44 33.0953 28.935 34.4124 29.43 35.7294L30.735 33.4132ZM43.74 15.0649C36.585 8.25236 30.375 5.61819 27.54 7.34402C24.705 8.93361 23.85 15.6099 26.145 25.329C29.714 24.5926 33.319 24.0468 36.945 23.694C39.105 20.6511 41.4 17.7444 43.74 15.0649Z" fill="white"/>
</svg>
