<svg width="76" height="46" viewBox="0 0 76 46" fill="none" xmlns="http://www.w3.org/2000/svg">
<path d="M37.9167 0C27.7929 0 21.4988 5.04292 18.9583 15.1667C22.75 10.1237 27.1863 8.22792 32.2292 9.47917C35.1108 10.1996 37.1963 12.285 39.4712 14.5979C43.1871 18.3896 47.3958 22.75 56.875 22.75C66.9987 22.75 73.2929 17.7071 75.8333 7.58333C72.0417 12.6263 67.6054 14.5221 62.5625 13.2708C59.6808 12.5504 57.6333 10.465 55.3204 8.15208C51.6046 4.36042 47.3958 0 37.9167 0ZM18.9583 22.75C8.83458 22.75 2.54042 27.7929 0 37.9167C3.79167 32.8737 8.22792 30.9779 13.2708 32.2292C16.1525 32.9496 18.2 35.035 20.5129 37.3479C24.2288 41.1396 28.4375 45.5 37.9167 45.5C48.0404 45.5 54.3346 40.4571 56.875 30.3333C53.0833 35.3763 48.6471 37.2721 43.6042 36.0208C40.7225 35.3004 38.675 33.215 36.3621 30.9021C32.6463 27.1104 28.4375 22.75 18.9583 22.75Z" fill="white"/>
</svg>
