<svg width="99" height="99" viewBox="0 0 99 99" fill="none" xmlns="http://www.w3.org/2000/svg">
<path d="M84.5 53V51.831C84.5 46.679 80.321 42.5 75.169 42.5H67C64.2152 42.5 61.5445 43.6062 59.5754 45.5754C57.6062 47.5445 56.5 50.2152 56.5 53C56.5 55.7848 57.6062 58.4555 59.5754 60.4246C61.5445 62.3938 64.2152 63.5 67 63.5H74C76.7848 63.5 79.4555 64.6062 81.4246 66.5754C83.3938 68.5445 84.5 71.2152 84.5 74C84.5 76.7848 83.3938 79.4555 81.4246 81.4246C79.4555 83.3938 76.7848 84.5 74 84.5H67C64.2152 84.5 61.5445 83.3938 59.5754 81.4246C57.6062 79.4555 56.5 76.7848 56.5 74M53 42.5H18M35.5 42.5V88M0.5 0.5H98.5V98.5H0.5V0.5Z" stroke="white"/>
</svg>
